<svg id="Calque_1" data-name="Calque 1" xmlns="http://www.w3.org/2000/svg" viewBox="0 0 4480 4480"><defs><style>.cls-1{fill:#fff;}</style></defs><path class="cls-1" d="M2823.11,3137.78h-4480v-4480h4480Zm-1144.6-1981c2.57-26.81,2-64.8-1.36-77.45-7.51-.38-15.39-1.11-23.28-1.12-30,0-59.93.15-89.89.26-24.64.1-49.27.25-73.91.29-3.16,0-6.81.54-8.36-4.75,14.22-23.92,28.43-48.73,43.51-73,47.11-75.74,94.6-151.23,141.8-226.91,7.39-11.85,14.09-24.14,20.94-36.32,1.52-2.7,2.35-5.79,3.74-9.32-10.1-4.12-19.47-2.42-28.52-2.41q-220.74.4-441.46,1.11c-51.94.12-103.88-.09-155.81,0-5.72,0-12.07-1.76-16.78,3.33-3.31,39.94-2.65,67,2.32,82,8.16.43,16.74,1.3,25.32,1.25,27.3-.16,54.59-.75,81.88-.92,4.39,0,8.79,1.28,14.11,2.12.3,7.6.77,14.19.78,20.78q.11,62.93,0,125.86c-.17,59.26-.56,118.53-.67,177.79,0,6.39-2,13.36,3.95,20.07,13.18,0,27.13.34,41.06-.1,13.67-.42,27.61,2.16,42.27-2.44,0-8.59,0-16.5,0-24.41q.22-150.82.53-301.65c0-5.09.87-10.18,1.43-16.32,8.21-.68,15.42-1.58,22.64-1.79,10-.29,20-.07,30-.07q106.88,0,213.75.07c4.78,0,10.59-2.25,14.53,4-2.66,4.5-5.19,9.15-8.06,13.59q-65.51,101.52-131.09,203-36.31,56.17-72.69,112.33c-2.35,3.64-3.9,7.79-6.36,12.83,5,.62,8.17,1.37,11.36,1.36q167.79-.51,335.58-1.21C1673.59,1158.62,1675.45,1157.64,1678.51,1156.76ZM-53.17,908.53c3,7.18,5.05,12,7,17q19.89,51.18,39.72,102.38c15.46,39.69,31.14,79.3,46.37,119.07,3.81,9.94,9.46,15.56,20.7,14.43,5.28-.53,10.65-.13,16,0,29.08.9,24.59,2.2,37.1-23q67-135.07,133.67-270.28c20.13-40.55,40.82-80.81,61.11-121.28,2.57-5.13,6.86-9.88,5.71-16.34-15.93-2.62-79.51-2.74-98.86-.07-3,5.62-6.53,12-9.92,18.41Q146.18,860.95,86.94,973.09c-3.25,6.15-5.15,13.46-12.66,18.36-3.19-7.44-6.16-14.07-8.9-20.79q-45.94-112.8-91.9-225.6c-2.45-6-3.38-13-10.11-17.73-5.23-.35-11.17-.67-17.11-1.16-20.8-1.72-20.82-1.75-28.91,18.12q-45.91,112.82-91.82,225.64c-2.74,6.72-5.7,13.35-8.68,20.32-7.41-3.91-8.85-10.8-11.84-16.46q-59.79-113-119.44-226c-3.66-6.91-6.1-14.78-12.92-19.84-30.81,0-61.43,0-92.06.06-1.16,0-2.31.92-4.3,1.77,0,6.73,4.33,12.09,7.19,17.83q60.58,121.53,121.31,243C-270,1041.22-245.11,1092-220,1142.72c2.91,5.88,4.82,12.51,11.87,17.31,7.49,0,16.13.28,24.73-.07,9.2-.38,18.61,1.62,29.25-2.49,4.74-11.3,10.14-23.41,14.94-35.75,24.34-62.66,48.47-125.4,72.84-188.05C-63.3,925.81-61.37,917.25-53.17,908.53Zm741.92,437.64c8.56-10.56,17.55-21.22,26-32.26,8.37-10.87,19.15-20.37,21.9-34.52-1.71-2.27-2.6-4.78-4.12-5.24-9.13-2.82-17.76-8.8-28.14-4.77-5,1.93-10.08,3.37-15.19,4.81-1.13.32-2.53-.34-3.39-.48l-7.08-9.65c-23.2,6.94-46.85,6.46-69,14.09-4.59,1.57-10.23.12-14.71.07a44.72,44.72,0,0,0-2.38-4.94c-10-14.38-20.1-13.86-28,1.3a166.46,166.46,0,0,1-8.88,15.39c-1.8,2.7-6.88,2.22-8.66-.57-3.07-4.77-5.87-9.71-9-15-10.44,3.92-16.35,11.28-22.5,18.06q-40.9,45.09-81.46,90.52-70.92,79.86-141.5,160Q219.18,1626,145.7,1709c-5.89,6.66-14.9,11.94-10.8,23.56.57,1.64-2,4.74-3.66,6.75-12.15,15-24.94,29.44-36.5,44.83-9.14,12.18-17,25.32-25,38.3-3.08,5,0,10.9,5.72,12.4a27,27,0,0,0,7.83,1c9.29-.36,18.56-1.26,27.84-1.44,7.65-.15,14.11-2.74,20.43-6.87,7.76-5.08,16-9.48,24.07-14,.78-.44,2.22.3,3.78.56-1.85,5.2-3.67,10.33-5.94,16.73,15.68-1.13,29.41-2.35,42.27-8.8,3.33-1.68,8.42-3.39,11.21-2,13,6.35,24,5.34,33.78-5.79.8-.91,2.32-1.27,3.56-1.73,14.14-5.24,25-15,35.17-25.65,7.33-7.72,13.92-16.17,21.58-23.53,8.29-8,14.59-19.46,29-18.35,2,.16,4.51-2.57,6.37-4.39,3.31-3.26,6.37-6.79,9.42-10.3,32.74-37.67,64.84-75.91,98.34-112.89,44.23-48.83,89.33-96.86,134.45-144.86,36.9-39.25,74.37-78,112.16-117.51C690.27,1352.91,689.59,1349.9,688.75,1346.17ZM-619.51,1135.89c7.57-10.17,14-19.46,21.06-28.17,43.15-53,61.19-113.91,51.16-180.92-12.8-85.48-60.1-146.19-140.82-179.42-36.49-15-74.7-18.23-113.66-15.66a207.88,207.88,0,0,0-62.14,13.54c-88.48,34.49-160.24,129.18-142.67,241.79,15.34,98.31,82.43,165.63,172.46,188.22,43.45,10.9,87.14,7.78,130.55-1.74,4.37-1,8.85-1.36,13.94-2.12,11,19.88,21.38,39.2,32.35,58.17,11.17,19.33,20.34,39.87,34.62,59.66,17.73-23.32,35.09-44.74,49.69-68.7C-588.53,1192.25-603.55,1164.91-619.51,1135.89ZM1204,152.69c-4.59-6.27-8.69-10.24-15.38-10.09-5.38.12-10.69-.36-14.85-4.47-6.25-6.18-14-6.76-22.24-6.38-5.89.27-11.84-.44-17.74-1-7.91-.69-15.79-1.92-23.71-2.35s-15.71.38-22.57-5.66c-4.51-4-10.51-2.44-14.36,2-5.66,6.48-10.58,13.59-15.81,20.45-3.58,4.7-6.2,10.62-12.71,12-8.6,1.75-13.43,8.13-18.63,14.18-30.8,35.82-61.73,71.52-92.37,107.47Q846.83,380.59,760.42,482.69c-22.72,27-44.55,54.69-66.56,82.25-7,8.76-14,17.7-16.46,28.67,3.29,6.43,8.18,7.86,13.63,5.13a56.12,56.12,0,0,0,13-9c7.79-7.25,15.05-15.06,22.58-22.59q24.72-24.68,49.49-49.3a74.91,74.91,0,0,1,20.41-14.9c-6.4,8-9.82,12.78-13.72,17.11q-28.71,31.88-57.65,63.56c-6.19,6.78-12.35,13.52-13.89,23C721,616,732.54,621,744.15,626c6.93,3,13.05,1.61,18.51-3.11,5-4.34,9.71-9.09,14.76-13.4,1.83-1.57,4.1-3.59,7.65-.57-.51,10.93-10.81,19-11.54,30.21,6.05,7.76,14.59,9.46,22.76,12.41,12-5.43,22.39-13.13,29.48-23.5,8-11.7,18.5-18.21,31.29-22.42l2.34,6.17c2.34-1.06,5.19-1.55,6.83-3.22,5.54-5.68,10.8-11.66,15.89-17.75,9.8-11.7,18.49-24.49,29.27-35.18,37.85-37.56,73.05-77.45,107-118.5Q1108,328.59,1197.1,219.65c16-19.56,31.18-39.8,46.45-59.94,2.63-3.47,3.85-8,5.61-11.8-16.39-12.67-19.63-12.95-34.2-3.29C1211.66,146.81,1208.57,149.3,1204,152.69Zm185.87-31.94c-7.94,2.59-13,8-17.81,13.4-13.67,15.43-27.25,30.95-40.5,46.74-23.94,28.53-47.16,57.68-71.51,85.85-39.59,45.78-80.4,90.52-119.68,136.56-38.84,45.55-76.44,92.16-114.57,138.33-12.71,15.39-25.49,30.72-38,46.29a260.7,260.7,0,0,0-16.31,22.64c-1.51,2.36-2.13,6.66-1,9,1.58,3.22,5.45,2.73,8.8,1.22a137.88,137.88,0,0,1,12.92-5.15c1.77-.58,3.88-.1,5.86-.1l5.2,9.25c3.6.44,7.63.46,11.4,1.48,8.89,2.41,15.39-1,21.21-7.35,3.23-3.52,6.11-7.68,12.92-11.16l-7.47,21.68c10.34,8.39,19.63,6.94,28.21-.09,6.13-5,11.6-10.88,17.23-16.5,3.93-3.92,7.64-8.06,14.73-15.59-1.85,7.18-2.07,9.77-3.15,11.93-4.13,8.33-8.74,16.43-12.7,24.84-.93,2-1,5.69.25,7.08,1.42,1.58,5.07,2.48,7.17,1.83a33.64,33.64,0,0,0,10.15-5.69c4.35-3.32,6.26-9.32,13.61-13.87-2.47,10-6.31,17.34-1.63,25.42,7.91,5.44,16.13,3.92,23.38-1.9a109.88,109.88,0,0,0,15.29-15.65c12.32-14.85,24-30.22,36.44-45Q1297.05,459.61,1404,333.11q67.45-80.19,134.15-161a156.54,156.54,0,0,0,13.5-19.69c1.44-2.41,1.1-5.88,1.63-9.29-19.78-6.07-36.13,4.81-54.83,6.88-2.19-10.1-8.78-13.7-18.85-12.59a19.05,19.05,0,0,1-11.18-2.8c-8.52-5.18-17-6.86-26.61-3.45-5.66,2-11.8,3-17.33-.67-3.91-2.59-7.39-1.47-11.26,0-3,1.09-6.27,1.36-9.24,2Zm589,863.88c.3,7.7.76,14.23.77,20.77,0,44.63-.16,89.26,0,133.88,0,6.39-1.91,13.34,2.9,18.92,26.32,2.66,69.74,1.92,83.17-1.4,3.38-22.83,5.22-338.65,2.39-419.2a84.58,84.58,0,0,0-1.28-9.14c-17.73-3.33-70.28-2.86-84.86.84-.3,5.48-.86,11.32-.91,17.17-.33,42.63-.52,85.26-.86,127.89,0,6.49-.66,13-1.06,20.3-4.32.51-7.49,1.21-10.67,1.21q-80.91,0-161.83-.15c-2.5,0-5-1-8.61-1.68-.31-6.93-.85-13.45-.87-20-.08-38.64,0-77.27-.1-115.91,0-9.83.51-19.79-2.2-30.16-9.79-2-19-.65-28.2-.82-10-.18-20-.44-30,.08-9,.47-18.41-2.45-28.1,2.56v20.06q0,133.88.09,267.75c0,42-.21,83.93-.21,125.9,0,5.14-1.16,10.76,4.32,15.43,25.21,0,51.14,0,77.06-.12,1.68,0,3.35-1.72,5.76-3,.23-9.85.62-19.79.65-29.74.12-41.3,0-82.59.26-123.89,0-5.77-1.75-12,2.59-17.11C1815.25,982.57,1954.43,982.05,1978.8,984.63ZM956.15,998.24c3.06-2.5,5-4.27,7.13-5.78,34.63-24.42,54-58.29,59.73-99.72,4.26-30.86,1.76-61.51-14.14-89.12-27.29-47.38-68.91-73.49-123.53-75.55-47.85-1.8-95.81-.78-143.72-.89-3.79,0-7.58.85-11,1.27-2.76,17.42-2.85,65.7-.23,83.24,7.07,3.91,15.18,2.42,23,2.33,39.25-.48,78.5-1.26,117.75-1.62,8.6-.07,17.23.91,25.82,1.78,9.72,1,17.23,6.15,24.08,12.9,24.19,23.81,19.3,66.31,3.51,84.51-7.68,8.85-16.67,15.34-28.5,16.85a183.85,183.85,0,0,1-21.85,1.65c-16.63.14-33.27-.26-49.9-.19-3.65,0-7.29,1.11-12.44,2,3,9.22,7.69,15.56,11.84,22.14q59,93.72,118.15,187.37c3.87,6.11,8.42,11.79,12.11,16.92,35.11,2.84,97.59,1.94,114.1-2C1030.63,1103.22,991.63,1052.18,956.15,998.24ZM503.61,816.49c-1.94,1-3.71,1.27-4.17,2.21Q419.7,979.61,340.2,1140.62c-2.56,5.2-4.62,10.65-7,16.22,17.75,3.57,59.53,3.41,78.32-.06,10.39-13.54,12.68-31.8,24.17-45.66,6.06-.43,12-1.13,17.93-1.22,30.62-.47,61.27-.07,91.85-1.48,13.66-.63,20.65,3.91,25.22,16.61,4.45,12.36,9.89,24.7,19.4,34,27.79,2.37,67,1.68,82.64-1.63-1.19-3.13-2.1-6.18-3.46-9Q589,981.17,503.61,816.49Zm-243.9,342.65c4.77-9.22,8.86-16.83,12.69-24.58q66-133.3,131.92-266.62c20.72-41.73,42-83.19,62.83-124.86,2.26-4.51,6.53-8.75,4.12-14.67-25.14-2.68-81.75-1.87-95.14,1.35-14.83,33.42-80,162.73-107.78,213.86-45.46,83.68-102.63,196.83-108.89,215.84,2.52.64,5,1.87,7.43,1.79C197.41,1160.26,228,1163.18,259.71,1159.14ZM632,727.43c-32.17-3.16-80.8-2.32-94.58,1.72.79,7.38,5.14,13.41,8.32,19.8q60,120.62,120.19,241.16,36.93,74.14,73.72,148.36c3.5,7,5.92,14.86,12.08,19.74,29,2.61,83.54,1.94,97.26-1.1,0-1.3.45-2.81-.07-3.84C778.1,1010.93,701.78,871.4,632,727.43Zm-896.19,430.28c.17-.65.67-1.46.45-1.91-70.26-143.34-147.8-283-217-426.94-20-2.83-80.58-2.44-95.95.93,3.09,6.7,5.91,13.27,9.1,19.66q60.11,120.62,120.29,241.19c24.61,49.45,49,99,73.59,148.47,3.51,7,5.8,15,12.58,19.87C-333,1161.67-278,1160.94-264.23,1157.71Z" transform="translate(1656.89 1342.22)"/><path d="M1678.51,1156.76c-3.06.88-4.92,1.86-6.77,1.87q-167.79.7-335.58,1.21c-3.19,0-6.38-.74-11.36-1.36,2.46-5,4-9.19,6.36-12.83q36.24-56.24,72.69-112.33,65.6-101.46,131.09-203c2.87-4.44,5.4-9.09,8.06-13.59-3.94-6.25-9.75-4-14.53-4q-106.87-.22-213.75-.07c-10,0-20-.22-30,.07-7.22.21-14.43,1.11-22.64,1.79-.56,6.14-1.42,11.23-1.43,16.32q-.36,150.82-.53,301.65c0,7.91,0,15.82,0,24.41-14.66,4.6-28.6,2-42.27,2.44-13.93.44-27.88.1-41.06.1-6-6.71-4-13.68-3.95-20.07.11-59.26.5-118.53.67-177.79q.18-62.93,0-125.86c0-6.59-.48-13.18-.78-20.78-5.32-.84-9.72-2.14-14.11-2.12-27.29.17-54.58.76-81.88.92-8.58,0-17.16-.82-25.32-1.25-5-15-5.63-42-2.32-82,4.71-5.09,11.06-3.32,16.78-3.33,51.93-.13,103.87.08,155.81,0q220.72-.51,441.46-1.11c9,0,18.42-1.71,28.52,2.41-1.39,3.53-2.22,6.62-3.74,9.32-6.85,12.18-13.55,24.47-20.94,36.32-47.2,75.68-94.69,151.17-141.8,226.91-15.08,24.26-29.29,49.07-43.51,73,1.55,5.29,5.2,4.75,8.36,4.75,24.64,0,49.27-.19,73.91-.29,30-.11,59.92-.3,89.89-.26,7.89,0,15.77.74,23.28,1.12C1680.47,1092,1681.08,1130,1678.51,1156.76Z" transform="translate(1656.89 1342.22)"/><path d="M-53.17,908.53c-8.2,8.72-10.13,17.28-13.19,25.14-24.37,62.65-48.5,125.39-72.84,188.05-4.8,12.34-10.2,24.45-14.94,35.75-10.64,4.11-20.05,2.11-29.25,2.49-8.6.35-17.24.07-24.73.07-7-4.8-9-11.43-11.87-17.31-25.12-50.69-50-101.5-75.22-152.15q-60.53-121.55-121.31-243c-2.86-5.74-7.19-11.1-7.19-17.83,2-.85,3.14-1.77,4.3-1.77,30.63-.08,61.25-.06,92.06-.06,6.82,5.06,9.26,12.93,12.92,19.84q59.81,113,119.44,226c3,5.66,4.43,12.55,11.84,16.46,3-7,5.94-13.6,8.68-20.32q45.93-112.81,91.82-225.64c8.09-19.87,8.11-19.84,28.91-18.12,5.94.49,11.88.81,17.11,1.16,6.73,4.74,7.66,11.74,10.11,17.73q46.08,112.76,91.9,225.6c2.74,6.72,5.71,13.35,8.9,20.79,7.51-4.9,9.41-12.21,12.66-18.36Q146.3,861,205.37,748.79c3.39-6.43,6.89-12.79,9.92-18.41,19.35-2.67,82.93-2.55,98.86.07,1.15,6.46-3.14,11.21-5.71,16.34-20.29,40.47-41,80.73-61.11,121.28q-67,135-133.67,270.28c-12.51,25.24-8,23.94-37.1,23-5.33-.16-10.7-.56-16,0-11.24,1.13-16.89-4.49-20.7-14.43C24.65,1107.16,9,1067.55-6.49,1027.86Q-26.41,976.7-46.21,925.48C-48.12,920.56-50.21,915.71-53.17,908.53Z" transform="translate(1656.89 1342.22)"/><path d="M688.75,1346.17c.84,3.73,1.52,6.74,2,8.75-37.79,39.56-75.26,78.26-112.16,117.51-45.12,48-90.22,96-134.45,144.86-33.5,37-65.6,75.22-98.34,112.89-3,3.51-6.11,7-9.42,10.3-1.86,1.82-4.36,4.55-6.37,4.39-14.4-1.11-20.7,10.37-29,18.35-7.66,7.36-14.25,15.81-21.58,23.53-10.14,10.67-21,20.41-35.17,25.65-1.24.46-2.76.82-3.56,1.73-9.74,11.13-20.79,12.14-33.78,5.79-2.79-1.37-7.88.34-11.21,2-12.86,6.45-26.59,7.67-42.27,8.8,2.27-6.4,4.09-11.53,5.94-16.73-1.56-.26-3-1-3.78-.56-8.11,4.52-16.31,8.92-24.07,14-6.32,4.13-12.78,6.72-20.43,6.87-9.28.18-18.55,1.08-27.84,1.44a27,27,0,0,1-7.83-1c-5.74-1.5-8.8-7.42-5.72-12.4,8-13,15.91-26.12,25-38.3,11.56-15.39,24.35-29.87,36.5-44.83,1.63-2,4.23-5.11,3.66-6.75-4.1-11.62,4.91-16.9,10.8-23.56q73.38-83,146.9-165.91,70.77-80,141.5-160,40.42-45.54,81.46-90.52c6.15-6.78,12.06-14.14,22.5-18.06,3.14,5.25,5.94,10.19,9,15,1.78,2.79,6.86,3.27,8.66.57a166.46,166.46,0,0,0,8.88-15.39c7.93-15.16,18-15.68,28-1.3a44.72,44.72,0,0,1,2.38,4.94c4.48,0,10.12,1.5,14.71-.07,22.2-7.63,45.85-7.15,69-14.09l7.08,9.65c.86.14,2.26.8,3.39.48,5.11-1.44,10.24-2.88,15.19-4.81,10.38-4,19,1.95,28.14,4.77,1.52.46,2.41,3,4.12,5.24-2.75,14.15-13.53,23.65-21.9,34.52C706.3,1325,697.31,1335.61,688.75,1346.17Z" transform="translate(1656.89 1342.22)"/><path d="M-619.51,1135.89c16,29,31,56.36,46.54,84.65-14.6,24-32,45.38-49.69,68.7-14.28-19.79-23.45-40.33-34.62-59.66-11-19-21.33-38.29-32.35-58.17-5.09.76-9.57,1.16-13.94,2.12-43.41,9.52-87.1,12.64-130.55,1.74-90-22.59-157.12-89.91-172.46-188.22-17.57-112.61,54.19-207.3,142.67-241.79a207.88,207.88,0,0,1,62.14-13.54c39-2.57,77.17.63,113.66,15.66,80.72,33.23,128,93.94,140.82,179.42,10,67-8,128-51.16,180.92C-605.55,1116.43-611.94,1125.72-619.51,1135.89Zm-113.34-40.78c-3-6.11-5.15-10.9-7.67-15.5-9.89-18.09-20-36.07-29.79-54.2-1.8-3.3-2.75-7.06-4.41-11.46,19.38-10.76,37.91-21.11,56.5-31.34,2.84-1.56,6-2.63,9.9-4.33,17,24.11,27.57,51.5,44.78,76,10.53-10.26,16.77-21.82,21.59-34.25,11.13-28.67,12.77-58.25,7.78-88.32-9.45-57-52.26-102.08-108.94-113.69-13.54-2.77-27.69-3.19-41.58-3.52-76.83-1.81-132.29,59.2-138.86,118.05-6.05,54.12,11.16,98.34,52.07,133.11,38.09,32.36,83.52,38.47,131.47,33C-738.24,1098.51-736.62,1097.05-732.85,1095.11Z" transform="translate(1656.89 1342.22)"/><path d="M1204,152.69c4.61-3.39,7.7-5.88,11-8.07,14.57-9.66,17.81-9.38,34.2,3.29-1.76,3.79-3,8.33-5.61,11.8-15.27,20.14-30.45,40.38-46.45,59.94Q1108,328.6,1018.35,437.11c-33.91,41.05-69.11,80.94-107,118.5-10.78,10.69-19.47,23.48-29.27,35.18-5.09,6.09-10.35,12.07-15.89,17.75-1.64,1.67-4.49,2.16-6.83,3.22l-2.34-6.17c-12.79,4.21-23.29,10.72-31.29,22.42-7.09,10.37-17.5,18.07-29.48,23.5-8.17-3-16.71-4.65-22.76-12.41.73-11.19,11-19.28,11.54-30.21-3.55-3-5.82-1-7.65.57-5,4.31-9.73,9.06-14.76,13.4-5.46,4.72-11.58,6.1-18.51,3.11-11.61-5-23.2-10-32.91-19.35,1.54-9.52,7.7-16.26,13.89-23Q754,551.87,782.78,520c3.9-4.33,7.32-9.1,13.72-17.11a74.91,74.91,0,0,0-20.41,14.9q-24.75,24.65-49.49,49.3c-7.53,7.53-14.79,15.34-22.58,22.59a56.12,56.12,0,0,1-13,9c-5.45,2.73-10.34,1.3-13.63-5.13,2.46-11,9.47-19.91,16.46-28.67,22-27.56,43.84-55.28,66.56-82.25Q846.63,380.43,933.59,278.8c30.64-36,61.57-71.65,92.37-107.47,5.2-6.05,10-12.43,18.63-14.18,6.51-1.33,9.13-7.25,12.71-12,5.23-6.86,10.15-14,15.81-20.45,3.85-4.41,9.85-6,14.36-2,6.86,6,14.64,5.23,22.57,5.66s15.8,1.66,23.71,2.35c5.9.52,11.85,1.23,17.74,1,8.26-.38,16,.2,22.24,6.38,4.16,4.11,9.47,4.59,14.85,4.47C1195.27,142.45,1199.37,146.42,1204,152.69Z" transform="translate(1656.89 1342.22)"/><path d="M1389.83,120.75,1404,132.39c3-.6,6.25-.87,9.24-2,3.87-1.42,7.35-2.54,11.26,0,5.53,3.68,11.67,2.68,17.33.67,9.62-3.41,18.09-1.73,26.61,3.45a19.05,19.05,0,0,0,11.18,2.8c10.07-1.11,16.66,2.49,18.85,12.59,18.7-2.07,35-13,54.83-6.88-.53,3.41-.19,6.88-1.63,9.29a156.54,156.54,0,0,1-13.5,19.69q-66.9,80.66-134.15,161-106.63,126.76-213.69,253.17c-12.43,14.75-24.12,30.12-36.44,45a109.88,109.88,0,0,1-15.29,15.65c-7.25,5.82-15.47,7.34-23.38,1.9-4.68-8.08-.84-15.42,1.63-25.42-7.35,4.55-9.26,10.55-13.61,13.87a33.64,33.64,0,0,1-10.15,5.69c-2.1.65-5.75-.25-7.17-1.83-1.24-1.39-1.18-5.09-.25-7.08,4-8.41,8.57-16.51,12.7-24.84,1.08-2.16,1.3-4.75,3.15-11.93-7.09,7.53-10.8,11.67-14.73,15.59-5.63,5.62-11.1,11.47-17.23,16.5-8.58,7-17.87,8.48-28.21.09l7.47-21.68c-6.81,3.48-9.69,7.64-12.92,11.16-5.82,6.34-12.32,9.76-21.21,7.35-3.77-1-7.8-1-11.4-1.48l-5.2-9.25c-2,0-4.09-.48-5.86.1a137.88,137.88,0,0,0-12.92,5.15c-3.35,1.51-7.22,2-8.8-1.22-1.15-2.35-.53-6.65,1-9a260.7,260.7,0,0,1,16.31-22.64c12.49-15.57,25.27-30.9,38-46.29,38.13-46.17,75.73-92.78,114.57-138.33,39.28-46,80.09-90.78,119.68-136.56,24.35-28.17,47.57-57.32,71.51-85.85,13.25-15.79,26.83-31.31,40.5-46.74C1376.82,128.74,1381.89,123.34,1389.83,120.75ZM1122.12,617.64c14.88-11.59,19.82-18.3,21.22-28.86C1130.53,600.71,1127.46,604.88,1122.12,617.64Z" transform="translate(1656.89 1342.22)"/><path d="M1978.8,984.63c-24.37-2.58-163.55-2.06-179.8.44-4.34,5.09-2.56,11.34-2.59,17.11-.21,41.3-.14,82.59-.26,123.89,0,10-.42,19.89-.65,29.74-2.41,1.32-4.08,3-5.76,3-25.92.17-51.85.12-77.06.12-5.48-4.67-4.32-10.29-4.32-15.43,0-42,.21-83.93.21-125.9q0-133.87-.09-267.75V729.83c9.69-5,19.12-2.09,28.1-2.56,10-.52,20-.26,30-.08,9.15.17,18.41-1.13,28.2.82,2.71,10.37,2.16,20.33,2.2,30.16.14,38.64,0,77.27.1,115.91,0,6.51.56,13,.87,20,3.61.73,6.11,1.67,8.61,1.68q80.91.19,161.83.15c3.18,0,6.35-.7,10.67-1.21.4-7.33,1-13.81,1.06-20.3.34-42.63.53-85.26.86-127.89,0-5.85.61-11.69.91-17.17,14.58-3.7,67.13-4.17,84.86-.84a84.58,84.58,0,0,1,1.28,9.14c2.83,80.55,1,396.37-2.39,419.2-13.43,3.32-56.85,4.06-83.17,1.4-4.81-5.58-2.88-12.53-2.9-18.92-.13-44.62,0-89.25,0-133.88C1979.56,998.86,1979.1,992.33,1978.8,984.63Z" transform="translate(1656.89 1342.22)"/><path d="M956.15,998.24c35.48,53.94,74.48,105,111.9,158-16.51,3.93-79,4.83-114.1,2-3.69-5.13-8.24-10.81-12.11-16.92Q882.67,1047.75,823.69,954c-4.15-6.58-8.88-12.92-11.84-22.14,5.15-.84,8.79-1.93,12.44-2,16.63-.07,33.27.33,49.9.19A183.85,183.85,0,0,0,896,928.44c11.83-1.51,20.82-8,28.5-16.85,15.79-18.2,20.68-60.7-3.51-84.51-6.85-6.75-14.36-11.93-24.08-12.9-8.59-.87-17.22-1.85-25.82-1.78-39.25.36-78.5,1.14-117.75,1.62-7.82.09-15.93,1.58-23-2.33-2.62-17.54-2.53-65.82.23-83.24,3.43-.42,7.22-1.28,11-1.27,47.91.11,95.87-.91,143.72.89,54.62,2.06,96.24,28.17,123.53,75.55,15.9,27.61,18.4,58.26,14.14,89.12-5.71,41.43-25.1,75.3-59.73,99.72C961.15,994,959.21,995.74,956.15,998.24Z" transform="translate(1656.89 1342.22)"/><path d="M503.61,816.49q85.18,164.76,165.63,331.88c1.36,2.84,2.27,5.89,3.46,9-15.67,3.31-54.85,4-82.64,1.63-9.51-9.29-14.95-21.63-19.4-34-4.57-12.7-11.56-17.24-25.22-16.61-30.58,1.41-61.23,1-91.85,1.48-5.94.09-11.87.79-17.93,1.22-11.49,13.86-13.78,32.12-24.17,45.66-18.79,3.47-60.57,3.63-78.32.06,2.41-5.57,4.47-11,7-16.22q79.53-161,159.24-321.92C499.9,817.76,501.67,817.48,503.61,816.49Zm-2.77,173.62c-9.31,16.5-16.74,31.24-21.69,48.6,14,0,26.49.06,39-.07,1.76,0,3.5-1,6.59-1.89A173.78,173.78,0,0,0,500.84,990.11Z" transform="translate(1656.89 1342.22)"/><path d="M259.71,1159.14c-31.67,4-62.3,1.12-92.82,2.11-2.44.08-4.91-1.15-7.43-1.79,6.26-19,63.43-132.16,108.89-215.84,27.78-51.13,92.95-180.44,107.78-213.86,13.39-3.22,70-4,95.14-1.35,2.41,5.92-1.86,10.16-4.12,14.67-20.84,41.67-42.11,83.13-62.83,124.86q-66.15,133.21-131.92,266.62C268.57,1142.31,264.48,1149.92,259.71,1159.14Z" transform="translate(1656.89 1342.22)"/><path d="M632,727.43c69.82,144,146.14,283.5,216.92,425.84.52,1,.07,2.54.07,3.84-13.72,3-68.27,3.71-97.26,1.1-6.16-4.88-8.58-12.72-12.08-19.74q-37-74.13-73.72-148.36Q605.83,869.51,545.7,749c-3.18-6.39-7.53-12.42-8.32-19.8C551.16,725.11,599.79,724.27,632,727.43Z" transform="translate(1656.89 1342.22)"/><path d="M-264.23,1157.71c-13.79,3.23-68.78,4-96.89,1.27-6.78-4.86-9.07-12.84-12.58-19.87-24.64-49.43-49-99-73.59-148.47q-60-120.64-120.29-241.19c-3.19-6.39-6-13-9.1-19.66,15.37-3.37,75.91-3.76,95.95-.93,69.15,144,146.69,283.6,217,426.94C-263.56,1156.25-264.06,1157.06-264.23,1157.71Z" transform="translate(1656.89 1342.22)"/><path class="cls-1" d="M-732.85,1095.11c-3.77,1.94-5.39,3.4-7.16,3.6-48,5.44-93.38-.67-131.47-33-40.91-34.77-58.12-79-52.07-133.11,6.57-58.85,62-119.86,138.86-118.05,13.89.33,28,.75,41.58,3.52,56.68,11.61,99.49,56.7,108.94,113.69,5,30.07,3.35,59.65-7.78,88.32-4.82,12.43-11.06,24-21.59,34.25-17.21-24.52-27.81-51.91-44.78-76-3.95,1.7-7.06,2.77-9.9,4.33-18.59,10.23-37.12,20.58-56.5,31.34,1.66,4.4,2.61,8.16,4.41,11.46,9.83,18.13,19.9,36.11,29.79,54.2C-738,1084.21-735.86,1089-732.85,1095.11Z" transform="translate(1656.89 1342.22)"/><path class="cls-1" d="M1122.12,617.64c5.34-12.76,8.41-16.93,21.22-28.86C1141.94,599.34,1137,606.05,1122.12,617.64Z" transform="translate(1656.89 1342.22)"/><path class="cls-1" d="M500.84,990.11a173.78,173.78,0,0,1,23.87,46.64c-3.09.92-4.83,1.87-6.59,1.89-12.48.13-25,.07-39,.07C484.1,1021.35,491.53,1006.61,500.84,990.11Z" transform="translate(1656.89 1342.22)"/></svg>